<?xml version="1.0" encoding="UTF-8" standalone="no"?>
<!-- Created with Inkscape (http://www.inkscape.org/) -->

<svg
   xmlns:dc="http://purl.org/dc/elements/1.1/"
   xmlns:cc="http://creativecommons.org/ns#"
   xmlns:rdf="http://www.w3.org/1999/02/22-rdf-syntax-ns#"
   xmlns:svg="http://www.w3.org/2000/svg"
   xmlns="http://www.w3.org/2000/svg"
   xmlns:sodipodi="http://sodipodi.sourceforge.net/DTD/sodipodi-0.dtd"
   xmlns:inkscape="http://www.inkscape.org/namespaces/inkscape"
   width="55.74157mm"
   height="24mm"
   id="svg4891"
   version="1.1"
   inkscape:version="0.91 r13725"
   sodipodi:docname="logo_MLAB_short_24mmTape.svg">
  <defs
     id="defs3" />
  <sodipodi:namedview
     inkscape:document-units="mm"
     id="base"
     pagecolor="#ffffff"
     bordercolor="#666666"
     borderopacity="1.0"
     inkscape:pageopacity="0.0"
     inkscape:pageshadow="2"
     inkscape:zoom="3.959798"
     inkscape:cx="100.48625"
     inkscape:cy="-82.193252"
     inkscape:current-layer="layer1"
     showgrid="false"
     units="mm"
     inkscape:window-width="1015"
     inkscape:window-height="1896"
     inkscape:window-x="65"
     inkscape:window-y="24"
     inkscape:window-maximized="1"
     fit-margin-left="1"
     fit-margin-top="1"
     fit-margin-bottom="1"
     fit-margin-right="1"
     showborder="true"
     borderlayer="false"
     inkscape:showpageshadow="true" />
  <metadata
     id="metadata4">
    <rdf:RDF>
      <cc:Work
         rdf:about="">
        <dc:format>image/svg+xml</dc:format>
        <dc:type
           rdf:resource="http://purl.org/dc/dcmitype/StillImage" />
        <dc:title />
      </cc:Work>
    </rdf:RDF>
  </metadata>
  <g
     inkscape:label="Layer 1"
     inkscape:groupmode="layer"
     id="layer1"
     transform="translate(-1.8673533,-968.44753)">
    <g
       transform="matrix(5.707418,0,0,-5.707418,-1007.0653,5621.0516)"
       id="g4862">
      <path
         inkscape:connector-curvature="0"
         id="path1084"
         style="fill:#231f20;fill-opacity:1;fill-rule:evenodd;stroke:none"
         d="m 181.557,805.137 5.099,0 0,5.1 -5.099,0 0,-5.1 z m -4.249,9.348 9.415,0 4.183,-4.182 0,-9.415 -13.598,0 0,13.597 z" />
      <g
         transform="translate(196.4434,805.6069)"
         id="g1086">
        <path
           inkscape:connector-curvature="0"
           id="path1088"
           style="fill:#231f20;fill-opacity:1;fill-rule:nonzero;stroke:none"
           d="m 0,0 0,2.268 c 0,0.384 -0.036,0.656 -0.109,0.818 -0.073,0.161 -0.222,0.242 -0.45,0.242 -0.189,0 -0.342,-0.052 -0.459,-0.155 C -1.134,3.07 -1.223,2.938 -1.285,2.777 l 0,-2.777 -1.084,0 0,4.17 0.843,0 0.125,-0.551 0.033,0 c 0.127,0.179 0.29,0.334 0.487,0.467 0.198,0.134 0.453,0.201 0.764,0.201 0.267,0 0.485,-0.055 0.655,-0.163 0.17,-0.108 0.3,-0.291 0.396,-0.545 0.128,0.215 0.292,0.388 0.492,0.515 0.199,0.128 0.442,0.193 0.726,0.193 0.233,0 0.431,-0.028 0.597,-0.084 C 2.912,4.147 3.045,4.051 3.148,3.915 3.251,3.779 3.327,3.597 3.378,3.37 3.427,3.141 3.454,2.852 3.454,2.501 l 0,-2.501 -1.086,0 0,2.344 C 2.368,2.67 2.333,2.917 2.265,3.082 2.194,3.246 2.041,3.328 1.801,3.328 1.607,3.328 1.453,3.274 1.339,3.169 1.225,3.063 1.14,2.919 1.084,2.735 L 1.084,0 0,0 Z" />
      </g>
      <g
         transform="translate(204.4307,806.4321)"
         id="g1090">
        <path
           inkscape:connector-curvature="0"
           id="path1092"
           style="fill:#231f20;fill-opacity:1;fill-rule:nonzero;stroke:none"
           d="M 0,0 C 0.216,0 0.39,0.049 0.518,0.146 0.646,0.244 0.74,0.348 0.801,0.459 l 0,0.542 C 0.628,1.018 0.463,1.021 0.305,1.009 0.146,0.998 0.007,0.973 -0.117,0.935 -0.238,0.895 -0.335,0.839 -0.408,0.768 -0.48,0.695 -0.516,0.604 -0.516,0.492 -0.516,0.336 -0.471,0.215 -0.379,0.13 -0.288,0.043 -0.161,0 0,0 m -1.376,3.103 c 0.223,0.1 0.486,0.18 0.792,0.238 0.307,0.058 0.626,0.087 0.96,0.087 0.289,0 0.531,-0.035 0.726,-0.105 C 1.297,3.254 1.45,3.155 1.564,3.028 1.678,2.899 1.759,2.747 1.806,2.569 1.853,2.391 1.877,2.19 1.877,1.968 1.877,1.724 1.869,1.478 1.853,1.23 1.836,0.982 1.826,0.739 1.823,0.5 1.819,0.26 1.827,0.029 1.844,-0.196 1.86,-0.42 1.902,-0.633 1.969,-0.834 l -0.884,0 -0.175,0.576 -0.042,0 C 0.755,-0.431 0.603,-0.58 0.405,-0.706 0.208,-0.829 -0.046,-0.892 -0.358,-0.892 c -0.195,0 -0.369,0.029 -0.525,0.087 -0.156,0.059 -0.29,0.142 -0.401,0.25 -0.11,0.109 -0.197,0.237 -0.258,0.385 -0.062,0.146 -0.092,0.312 -0.092,0.495 0,0.256 0.056,0.472 0.17,0.646 0.115,0.175 0.279,0.318 0.492,0.426 0.214,0.109 0.471,0.183 0.768,0.226 C 0.093,1.665 0.426,1.676 0.793,1.66 0.832,1.972 0.81,2.195 0.726,2.33 0.643,2.469 0.457,2.536 0.167,2.536 -0.048,2.536 -0.28,2.514 -0.521,2.469 -0.763,2.424 -0.96,2.366 -1.117,2.293 l -0.259,0.81 z" />
      </g>
      <g
         transform="translate(209.0767,808.9595)"
         id="g1094">
        <path
           inkscape:connector-curvature="0"
           id="path1096"
           style="fill:#231f20;fill-opacity:1;fill-rule:nonzero;stroke:none"
           d="m 0,0 c -0.2,0 -0.363,-0.052 -0.488,-0.154 -0.125,-0.103 -0.22,-0.253 -0.287,-0.447 l 0,-1.817 c 0.088,-0.045 0.184,-0.076 0.287,-0.093 0.103,-0.016 0.213,-0.025 0.33,-0.025 0.295,0 0.518,0.108 0.671,0.322 C 0.667,-2 0.743,-1.66 0.743,-1.192 0.743,-0.397 0.495,0 0,0 m -1.859,2.486 1.084,0 0,-2.003 0.034,0 c 0.116,0.134 0.266,0.24 0.449,0.318 0.184,0.078 0.386,0.116 0.608,0.116 0.501,0 0.883,-0.17 1.148,-0.512 0.264,-0.342 0.396,-0.863 0.396,-1.564 0,-0.751 -0.185,-1.322 -0.555,-1.71 -0.369,-0.389 -0.877,-0.583 -1.521,-0.583 -0.358,0 -0.682,0.029 -0.976,0.086 -0.296,0.058 -0.518,0.124 -0.667,0.197 l 0,5.655 z" />
      </g>
      <path
         inkscape:connector-curvature="0"
         id="path1098"
         style="fill:#231f20;fill-opacity:1;fill-rule:nonzero;stroke:none"
         d="m 202,805.518 -1.07,0 0,5.954 1.07,0 0,-5.954 z" />
    </g>
  </g>
</svg>
