<?xml version="1.0" encoding="UTF-8" standalone="no"?>
<!-- Created with Inkscape (http://www.inkscape.org/) -->

<svg
   xmlns:dc="http://purl.org/dc/elements/1.1/"
   xmlns:cc="http://creativecommons.org/ns#"
   xmlns:rdf="http://www.w3.org/1999/02/22-rdf-syntax-ns#"
   xmlns:svg="http://www.w3.org/2000/svg"
   xmlns="http://www.w3.org/2000/svg"
   xmlns:sodipodi="http://sodipodi.sourceforge.net/DTD/sodipodi-0.dtd"
   xmlns:inkscape="http://www.inkscape.org/namespaces/inkscape"
   width="123.53503mm"
   height="85.714752mm"
   id="svg4891"
   version="1.1"
   inkscape:version="0.92.2 (5c3e80d, 2017-08-06)"
   sodipodi:docname="MLAB_inside_design.svg">
  <defs
     id="defs3" />
  <sodipodi:namedview
     inkscape:document-units="mm"
     id="base"
     pagecolor="#ffffff"
     bordercolor="#666666"
     borderopacity="1.0"
     inkscape:pageopacity="0.0"
     inkscape:pageshadow="2"
     inkscape:zoom="1.4"
     inkscape:cx="218.26975"
     inkscape:cy="146.18218"
     inkscape:current-layer="g3345"
     showgrid="false"
     units="mm"
     inkscape:window-width="1287"
     inkscape:window-height="745"
     inkscape:window-x="71"
     inkscape:window-y="-8"
     inkscape:window-maximized="1"
     fit-margin-top="20"
     fit-margin-bottom="20"
     fit-margin-left="20"
     fit-margin-right="20" />
  <metadata
     id="metadata4">
    <rdf:RDF>
      <cc:Work
         rdf:about="">
        <dc:format>image/svg+xml</dc:format>
        <dc:type
           rdf:resource="http://purl.org/dc/dcmitype/StillImage" />
        <dc:title></dc:title>
      </cc:Work>
    </rdf:RDF>
  </metadata>
  <g
     inkscape:label="Layer 1"
     inkscape:groupmode="layer"
     id="layer1"
     transform="translate(-54.778156,-345.47089)">
    <g
       id="g3345"
       transform="matrix(0.98475766,0,0,1.1327786,38.83729,-62.597803)">
      <path
         inkscape:connector-curvature="0"
         id="path4238"
         d="M 267.59989,582.38079 H 55.714334 c -5.522361,0 -9.968157,-3.46521 -9.968157,-7.76952 V 431.84634 c 0,-4.30431 4.445796,-7.76952 9.968157,-7.76952 v 0 H 433.1081 c 5.52236,0 9.96817,3.46521 9.96817,7.76952 v 142.76493 c 0,4.30431 -4.44581,7.76952 -9.96817,7.76952 h -16.743"
         style="fill:none;fill-opacity:1;stroke:#000000;stroke-width:6.83097076;stroke-linejoin:round;stroke-miterlimit:4;stroke-dasharray:none;stroke-opacity:1" />
      <g
         transform="matrix(1.354437,0,0,1.0299566,-177.43659,-14.370607)"
         id="g4227">
        <path
           d="m 218.46226,519.73537 h 27.45596 v -31.43614 h -27.45596 z m -22.10476,-58.00588 49.92149,0.38528 22.52368,25.77763 v 58.03358 h -73.21948 z"
           style="fill:#000000;fill-opacity:1;fill-rule:evenodd;stroke:none;stroke-width:0.86146855"
           id="path1084"
           inkscape:connector-curvature="0"
           sodipodi:nodetypes="ccccccccccc" />
        <g
           id="g1086"
           transform="matrix(6.6875325,0,0,-6.6875325,305.06024,521.72274)"
           style="fill:#000000;fill-opacity:1">
          <path
             d="m 0,0 v 2.4192 c 0,0.4096 -0.0384,0.6997333 -0.11626667,0.8725333 -0.0778667,0.1717334 -0.2368,0.2581334 -0.48,0.2581334 -0.2016,0 -0.3648,-0.055467 -0.48960003,-0.1653334 -0.1237333,-0.1098666 -0.2186666,-0.2506666 -0.2848,-0.4224 V 0 h -1.1562666 v 4.448 h 0.8992 L -1.4944,3.8602667 h 0.0352 C -1.3237333,4.0512 -1.1498667,4.2165333 -0.93973333,4.3584 c 0.2112,0.1429333 0.4832,0.2144 0.81493333,0.2144 0.2848,0 0.51733333,-0.058667 0.69866667,-0.1738667 0.18133333,-0.1152 0.32,-0.3104 0.4224,-0.5813333 C 1.1328,4.0469333 1.3077333,4.2314667 1.5210667,4.3669333 1.7333333,4.5034667 1.9925333,4.5728 2.2954667,4.5728 2.544,4.5728 2.7552,4.5429333 2.9322667,4.4832 3.1061333,4.4234667 3.248,4.3210667 3.3578667,4.176 3.4677333,4.0309333 3.5488,3.8368 3.6032,3.5946667 3.6554667,3.3504 3.6842667,3.0421333 3.6842667,2.6677333 V 0 h -1.1584 v 2.5002667 c 0,0.3477333 -0.037333,0.6112 -0.1098667,0.7872 -0.075733,0.1749333 -0.2389333,0.2624 -0.4949333,0.2624 -0.2069334,0 -0.3712,-0.0576 -0.4928,-0.1696 C 1.3066667,3.2672 1.216,3.1136 1.1562667,2.9173333 V 0 Z"
             style="fill:#000000;fill-opacity:1;fill-rule:nonzero;stroke:none;stroke-width:1.06666672"
             id="path1088"
             inkscape:connector-curvature="0" />
        </g>
        <g
           id="g1090"
           transform="matrix(6.6875325,0,0,-6.6875325,376.62891,516.46685)"
           style="fill:#000000;fill-opacity:1">
          <path
             d="M 0,0 C 0.2304,0 0.416,0.05226667 0.55253333,0.15573333 0.68906667,0.26026667 0.78933333,0.3712 0.8544,0.4896 V 1.0677333 C 0.66986667,1.0858667 0.49386667,1.0890667 0.32533333,1.0762667 0.15573333,1.0645333 0.00746667,1.0378667 -0.1248,0.99733333 -0.25386667,0.95466667 -0.35733333,0.89493333 -0.4352,0.8192 -0.512,0.74133333 -0.5504,0.64426667 -0.5504,0.5248 c 0,-0.1664 0.048,-0.29546667 0.14613333,-0.38613333 C -0.3072,0.04586667 -0.17173333,0 0,0 m -1.4677333,3.3098667 c 0.2378666,0.1066666 0.51839997,0.192 0.84479997,0.2538666 0.32746666,0.061867 0.66773333,0.0928 1.024,0.0928 0.30826666,0 0.5664,-0.037333 0.77440003,-0.112 0.208,-0.0736 0.3712,-0.1792 0.4928,-0.3146666 0.1216,-0.1376 0.208,-0.2997334 0.2581333,-0.4896 C 1.9765333,2.5504 2.0021333,2.336 2.0021333,2.0992 c 0,-0.2602667 -0.00853,-0.5226667 -0.0256,-0.7872 -0.018133,-0.2645333 -0.0288,-0.52373333 -0.032,-0.77866667 -0.00427,-0.256 0.00427,-0.5024 0.0224,-0.7424 C 1.984,-0.448 2.0288,-0.6752 2.1002667,-0.8896 H 1.1573333 l -0.18666663,0.6144 h -0.0448 C 0.80533333,-0.45973333 0.6432,-0.61866667 0.432,-0.75306667 c -0.21013333,-0.1312 -0.48106667,-0.1984 -0.81386667,-0.1984 -0.208,0 -0.3936,0.0309333 -0.56,0.0928 C -1.1082667,-0.79573333 -1.2512,-0.7072 -1.3696,-0.592 c -0.1173333,0.11626667 -0.2101333,0.2528 -0.2752,0.41066667 -0.066133,0.15573333 -0.098133,0.3328 -0.098133,0.528 0,0.27306666 0.059733,0.50346666 0.1813333,0.68906663 0.1226667,0.1866667 0.2976,0.3392 0.5248,0.4544 0.22826667,0.1162667 0.5024,0.1952 0.8192,0.2410667 0.3168,0.0448 0.672,0.056533 1.06346667,0.039467 C 0.88746667,2.1034667 0.864,2.3413333 0.7744,2.4853333 0.68586667,2.6336 0.48746667,2.7050667 0.17813333,2.7050667 -0.0512,2.7050667 -0.29866667,2.6816 -0.55573333,2.6336 -0.81386667,2.5856 -1.024,2.5237333 -1.1914667,2.4458667 Z"
             style="fill:#000000;fill-opacity:1;fill-rule:nonzero;stroke:none;stroke-width:1.06666672"
             id="path1092"
             inkscape:connector-curvature="0" />
        </g>
        <g
           id="g1094"
           transform="matrix(6.6875325,0,0,-6.6875325,417.33692,499.06853)"
           style="fill:#000000;fill-opacity:1">
          <path
             d="M 0,0 C -0.21333333,0 -0.3872,-0.05546667 -0.52053333,-0.16426667 -0.65386667,-0.27413333 -0.7552,-0.43413333 -0.82666667,-0.64106667 V -2.5792 c 0.0938667,-0.048 0.19626667,-0.081067 0.30613334,-0.0992 0.10986666,-0.017067 0.2272,-0.026667 0.352,-0.026667 0.31466666,0 0.55253333,0.1152 0.71573333,0.3434667 0.16426667,0.2282667 0.24533333,0.5909333 0.24533333,1.0901333 C 0.79253333,-0.42346667 0.528,0 0,0 m -1.9829333,2.6517333 h 1.15626663 V 0.5152 H -0.7904 c 0.12373333,0.14293333 0.28373333,0.256 0.47893333,0.3392 C -0.1152,0.9376 0.10026667,0.97813333 0.33706667,0.97813333 0.87146667,0.97813333 1.2789333,0.7968 1.5616,0.432 1.8432,0.0672 1.984,-0.48853333 1.984,-1.2362667 1.984,-2.0373333 1.7866667,-2.6464 1.392,-3.0602667 0.9984,-3.4752 0.45653333,-3.6821333 -0.2304,-3.6821333 c -0.38186667,0 -0.72746667,0.030933 -1.0410667,0.091733 -0.3157333,0.061867 -0.5525333,0.132267 -0.7114666,0.2101336 z"
             style="fill:#000000;fill-opacity:1;fill-rule:nonzero;stroke:none;stroke-width:1.06666672"
             id="path1096"
             inkscape:connector-curvature="0" />
        </g>
        <path
           d="m 351.72344,522.35691 h -7.63269 v -32.91128 -9.5608 h 7.63269 z"
           style="fill:#000000;fill-opacity:1;fill-rule:nonzero;stroke:none;stroke-width:1.06666672"
           id="path1098"
           inkscape:connector-curvature="0"
           sodipodi:nodetypes="cccccc" />
      </g>
      <text
         id="text3342"
         y="505.76892"
         x="328.90347"
         style="font-style:normal;font-variant:normal;font-weight:bold;font-stretch:normal;font-size:42.92205048px;line-height:0%;font-family:'Segoe Script';-inkscape-font-specification:'Segoe Script, Bold';font-variant-ligatures:normal;font-variant-caps:normal;font-variant-numeric:normal;font-feature-settings:normal;text-align:start;letter-spacing:0px;word-spacing:0px;writing-mode:lr-tb;text-anchor:start;fill:#000000;fill-opacity:1;stroke:none;stroke-width:3.03640056px;stroke-linecap:butt;stroke-linejoin:miter;stroke-opacity:1"
         xml:space="preserve"
         transform="scale(0.85151183,1.1743818)"
         inkscape:transform-center-x="-10"
         inkscape:transform-center-y="3.5714286"><tspan
           y="505.76892"
           x="328.90347"
           id="tspan3344"
           sodipodi:role="line"
           style="font-style:normal;font-variant:normal;font-weight:bold;font-stretch:normal;font-size:42.92205048px;line-height:1.25;font-family:'Segoe Script';-inkscape-font-specification:'Segoe Script, Bold';font-variant-ligatures:normal;font-variant-caps:normal;font-variant-numeric:normal;font-feature-settings:normal;text-align:start;writing-mode:lr-tb;text-anchor:start;stroke-width:3.03640056px">inside </tspan></text>
    </g>
  </g>
</svg>
