<?xml version="1.0" encoding="UTF-8" standalone="no"?>
<svg
   xmlns:dc="http://purl.org/dc/elements/1.1/"
   xmlns:cc="http://creativecommons.org/ns#"
   xmlns:rdf="http://www.w3.org/1999/02/22-rdf-syntax-ns#"
   xmlns:svg="http://www.w3.org/2000/svg"
   xmlns="http://www.w3.org/2000/svg"
   xmlns:xlink="http://www.w3.org/1999/xlink"
   xmlns:sodipodi="http://sodipodi.sourceforge.net/DTD/sodipodi-0.dtd"
   xmlns:inkscape="http://www.inkscape.org/namespaces/inkscape"
   version="1.1"
   id="svg"
   x="0px"
   y="0px"
   width="27"
   height="17.99151"
   viewBox="0 0 21.596998 14.391209"
   xml:space="preserve"
   inkscape:version="0.48.1 r9760"
   sodipodi:docname="generic-male-header_bread_3.svg"><metadata
   id="metadata68"><rdf:RDF><cc:Work
       rdf:about=""><dc:format>image/svg+xml</dc:format><dc:type
         rdf:resource="http://purl.org/dc/dcmitype/StillImage" /><dc:title></dc:title></cc:Work></rdf:RDF></metadata><defs
   id="defs66" /><sodipodi:namedview
   pagecolor="#ffffff"
   bordercolor="#666666"
   borderopacity="1"
   objecttolerance="10"
   gridtolerance="10"
   guidetolerance="10"
   inkscape:pageopacity="0"
   inkscape:pageshadow="2"
   inkscape:window-width="1024"
   inkscape:window-height="696"
   id="namedview64"
   showgrid="false"
   fit-margin-top="0"
   fit-margin-left="0"
   fit-margin-right="0"
   fit-margin-bottom="0"
   inkscape:zoom="26.623669"
   inkscape:cx="13.5"
   inkscape:cy="8.995755"
   inkscape:window-x="0"
   inkscape:window-y="24"
   inkscape:window-maximized="1"
   inkscape:current-layer="svg" />










<g
   id="g3881"
   transform="translate(-7.6283349e-7,7.192209)"><rect
     height="2.7909999"
     width="2.7909999"
     y="2.204"
     x="2.204"
     id="connector0pin"
     style="fill:none" /><rect
     height="2.2620001"
     width="2.164"
     y="2.4690001"
     x="2.5179999"
     id="connector0terminal"
     style="fill:none" /><rect
     height="2.7909999"
     width="2.7909999"
     y="2.204"
     x="9.4029999"
     id="connector1pin"
     style="fill:none" /><rect
     height="2.2620001"
     width="2.164"
     y="2.4690001"
     x="9.717"
     id="connector1terminal"
     style="fill:none" /><rect
     height="2.7909999"
     width="2.7909999"
     y="2.204"
     x="16.601999"
     id="connector2pin"
     style="fill:none" /><rect
     height="2.2620001"
     width="2.164"
     y="2.4690001"
     x="16.916"
     id="connector2terminal"
     style="fill:none" /><g
     id="breadboard">
	<g
   id="g10">
		<polygon
   id="polygon12"
   points="1.563,7.199 5.635,7.199 7.199,5.637 7.199,1.564 5.635,0 1.563,0 1.563,0 0,1.564 0,5.637 "
   style="fill:#404040" />
	</g>
	<g
   id="g14">
		<rect
   id="rect16"
   height="2.299"
   width="2.2969999"
   y="2.45"
   x="2.451"
   style="fill:#8d8c8c" />
		<rect
   id="rect18"
   height="1.183"
   width="1.182"
   y="3.0079999"
   x="3.0090001"
   style="fill:#8c8663" />
		<polygon
   id="polygon20"
   points="4.748,2.45 2.451,2.45 3.009,3.008 4.19,3.008 "
   style="fill:#b8af82" />
		<polygon
   id="polygon22"
   points="4.748,4.749 4.19,4.19 4.19,3.008 4.748,2.45 "
   style="fill:#80795b" />
		<polygon
   id="polygon24"
   points="2.451,4.749 3.009,4.19 4.19,4.19 4.748,4.749 "
   style="fill:#5e5b43" />
		<polygon
   id="polygon26"
   points="2.451,4.749 2.451,2.45 3.009,3.008 3.009,4.19 "
   style="fill:#9a916c" />
	</g>
	<g
   id="g28">
		<polygon
   id="polygon30"
   points="8.762,7.199 12.834,7.199 14.398,5.637 14.398,1.564 12.834,0 8.762,0 8.762,0 7.199,1.564 7.199,5.637 "
   style="fill:#404040" />
	</g>
	<g
   id="g32">
		<rect
   id="rect34"
   height="2.299"
   width="2.2969999"
   y="2.45"
   x="9.6499996"
   style="fill:#8d8c8c" />
		<rect
   id="rect36"
   height="1.183"
   width="1.182"
   y="3.0079999"
   x="10.208"
   style="fill:#8c8663" />
		<polygon
   id="polygon38"
   points="11.947,2.45 9.65,2.45 10.208,3.008 11.389,3.008 "
   style="fill:#b8af82" />
		<polygon
   id="polygon40"
   points="11.947,4.749 11.389,4.19 11.389,3.008 11.947,2.45 "
   style="fill:#80795b" />
		<polygon
   id="polygon42"
   points="9.65,4.749 10.208,4.19 11.389,4.19 11.947,4.749 "
   style="fill:#5e5b43" />
		<polygon
   id="polygon44"
   points="9.65,4.749 9.65,2.45 10.208,3.008 10.208,4.19 "
   style="fill:#9a916c" />
	</g>
	<g
   id="g46">
		<polygon
   id="polygon48"
   points="15.961,7.199 20.033,7.199 21.597,5.637 21.597,1.564 20.033,0 15.961,0 15.961,0 14.398,1.564 14.398,5.637 "
   style="fill:#404040" />
	</g>
	<g
   id="g50">
		<rect
   id="rect52"
   height="2.299"
   width="2.2969999"
   y="2.45"
   x="16.849001"
   style="fill:#8d8c8c" />
		<rect
   id="rect54"
   height="1.183"
   width="1.182"
   y="3.0079999"
   x="17.407"
   style="fill:#8c8663" />
		<polygon
   id="polygon56"
   points="19.146,2.45 16.849,2.45 17.407,3.008 18.588,3.008 "
   style="fill:#b8af82" />
		<polygon
   id="polygon58"
   points="19.146,4.749 18.588,4.19 18.588,3.008 19.146,2.45 "
   style="fill:#80795b" />
		<polygon
   id="polygon60"
   points="16.849,4.749 17.407,4.19 18.588,4.19 19.146,4.749 "
   style="fill:#5e5b43" />
		<polygon
   id="polygon62"
   points="16.849,4.749 16.849,2.45 17.407,3.008 17.407,4.19 "
   style="fill:#9a916c" />
	</g>
</g><rect
     style="fill:none"
     id="rect3045"
     x="2.1632509"
     y="-5.0085835"
     width="2.7909999"
     height="2.7909999" /><rect
     style="fill:none"
     id="rect3047"
     x="2.4772508"
     y="-4.7435832"
     width="2.164"
     height="2.2620001" /><rect
     style="fill:none"
     id="rect3049"
     x="9.3622513"
     y="-5.0085835"
     width="2.7909999"
     height="2.7909999" /><rect
     style="fill:none"
     id="rect3051"
     x="9.6762514"
     y="-4.7435832"
     width="2.164"
     height="2.2620001" /><rect
     style="fill:none"
     id="rect3053"
     x="16.561251"
     y="-5.0085835"
     width="2.7909999"
     height="2.7909999" /><rect
     style="fill:none"
     id="rect3055"
     x="16.875252"
     y="-4.7435832"
     width="2.164"
     height="2.2620001" /><g
     transform="translate(0,-7.192209)"
     id="g3057">
	<g
   id="g3059">
		<polygon
   style="fill:#404040"
   points="5.635,0 1.563,0 1.563,0 0,1.564 0,5.637 1.563,7.199 5.635,7.199 7.199,5.637 7.199,1.564 "
   id="polygon3061" />
	</g>
	<g
   id="g3063">
		<rect
   style="fill:#8d8c8c"
   x="2.451"
   y="2.45"
   width="2.2969999"
   height="2.299"
   id="rect3065" />
		<rect
   style="fill:#8c8663"
   x="3.0090001"
   y="3.0079999"
   width="1.182"
   height="1.183"
   id="rect3067" />
		<polygon
   style="fill:#b8af82"
   points="4.748,2.45 2.451,2.45 3.009,3.008 4.19,3.008 "
   id="polygon3069" />
		<polygon
   style="fill:#80795b"
   points="4.748,4.749 4.19,4.19 4.19,3.008 4.748,2.45 "
   id="polygon3071" />
		<polygon
   style="fill:#5e5b43"
   points="2.451,4.749 3.009,4.19 4.19,4.19 4.748,4.749 "
   id="polygon3073" />
		<polygon
   style="fill:#9a916c"
   points="2.451,4.749 2.451,2.45 3.009,3.008 3.009,4.19 "
   id="polygon3075" />
	</g>
	<g
   id="g3077">
		<polygon
   style="fill:#404040"
   points="12.834,0 8.762,0 8.762,0 7.199,1.564 7.199,5.637 8.762,7.199 12.834,7.199 14.398,5.637 14.398,1.564 "
   id="polygon3079" />
	</g>
	<g
   id="g3081">
		<rect
   style="fill:#8d8c8c"
   x="9.6499996"
   y="2.45"
   width="2.2969999"
   height="2.299"
   id="rect3083" />
		<rect
   style="fill:#8c8663"
   x="10.208"
   y="3.0079999"
   width="1.182"
   height="1.183"
   id="rect3085" />
		<polygon
   style="fill:#b8af82"
   points="11.947,2.45 9.65,2.45 10.208,3.008 11.389,3.008 "
   id="polygon3087" />
		<polygon
   style="fill:#80795b"
   points="11.947,4.749 11.389,4.19 11.389,3.008 11.947,2.45 "
   id="polygon3089" />
		<polygon
   style="fill:#5e5b43"
   points="9.65,4.749 10.208,4.19 11.389,4.19 11.947,4.749 "
   id="polygon3091" />
		<polygon
   style="fill:#9a916c"
   points="9.65,4.749 9.65,2.45 10.208,3.008 10.208,4.19 "
   id="polygon3093" />
	</g>
	<g
   id="g3095">
		<polygon
   style="fill:#404040"
   points="20.033,0 15.961,0 15.961,0 14.398,1.564 14.398,5.637 15.961,7.199 20.033,7.199 21.597,5.637 21.597,1.564 "
   id="polygon3097" />
	</g>
	<g
   id="g3099">
		<rect
   style="fill:#8d8c8c"
   x="16.849001"
   y="2.45"
   width="2.2969999"
   height="2.299"
   id="rect3101" />
		<rect
   style="fill:#8c8663"
   x="17.407"
   y="3.0079999"
   width="1.182"
   height="1.183"
   id="rect3103" />
		<polygon
   style="fill:#b8af82"
   points="19.146,2.45 16.849,2.45 17.407,3.008 18.588,3.008 "
   id="polygon3105" />
		<polygon
   style="fill:#80795b"
   points="19.146,4.749 18.588,4.19 18.588,3.008 19.146,2.45 "
   id="polygon3107" />
		<polygon
   style="fill:#5e5b43"
   points="16.849,4.749 17.407,4.19 18.588,4.19 19.146,4.749 "
   id="polygon3109" />
		<polygon
   style="fill:#9a916c"
   points="16.849,4.749 16.849,2.45 17.407,3.008 17.407,4.19 "
   id="polygon3111" />
	</g>
</g></g><g
   id="g3951"
   transform="translate(-7.6283349e-7,7.192209)"><rect
     id="rect3953"
     x="2.204"
     y="2.204"
     width="2.7909999"
     height="2.7909999"
     style="fill:none" /><rect
     id="rect3955"
     x="2.5179999"
     y="2.4690001"
     width="2.164"
     height="2.2620001"
     style="fill:none" /><rect
     id="rect3957"
     x="9.4029999"
     y="2.204"
     width="2.7909999"
     height="2.7909999"
     style="fill:none" /><rect
     id="rect3959"
     x="9.717"
     y="2.4690001"
     width="2.164"
     height="2.2620001"
     style="fill:none" /><rect
     id="rect3961"
     x="16.601999"
     y="2.204"
     width="2.7909999"
     height="2.7909999"
     style="fill:none" /><rect
     id="rect3963"
     x="16.916"
     y="2.4690001"
     width="2.164"
     height="2.2620001"
     style="fill:none" /><g
     id="g3965">
	<g
   id="g3967">
		<polygon
   points="1.563,7.199 5.635,7.199 7.199,5.637 7.199,1.564 5.635,0 1.563,0 1.563,0 0,1.564 0,5.637 "
   id="polygon3969"
   style="fill:#404040" />
	</g>
	<g
   id="g3971">
		<rect
   x="2.451"
   y="2.45"
   width="2.2969999"
   height="2.299"
   id="rect3973"
   style="fill:#8d8c8c" />
		<rect
   x="3.0090001"
   y="3.0079999"
   width="1.182"
   height="1.183"
   id="rect3975"
   style="fill:#8c8663" />
		<polygon
   points="4.748,2.45 2.451,2.45 3.009,3.008 4.19,3.008 "
   id="polygon3977"
   style="fill:#b8af82" />
		<polygon
   points="4.748,4.749 4.19,4.19 4.19,3.008 4.748,2.45 "
   id="polygon3979"
   style="fill:#80795b" />
		<polygon
   points="2.451,4.749 3.009,4.19 4.19,4.19 4.748,4.749 "
   id="polygon3981"
   style="fill:#5e5b43" />
		<polygon
   points="2.451,4.749 2.451,2.45 3.009,3.008 3.009,4.19 "
   id="polygon3983"
   style="fill:#9a916c" />
	</g>
	<g
   id="g3985">
		<polygon
   points="8.762,7.199 12.834,7.199 14.398,5.637 14.398,1.564 12.834,0 8.762,0 8.762,0 7.199,1.564 7.199,5.637 "
   id="polygon3987"
   style="fill:#404040" />
	</g>
	<g
   id="g3989">
		<rect
   x="9.6499996"
   y="2.45"
   width="2.2969999"
   height="2.299"
   id="rect3991"
   style="fill:#8d8c8c" />
		<rect
   x="10.208"
   y="3.0079999"
   width="1.182"
   height="1.183"
   id="rect3993"
   style="fill:#8c8663" />
		<polygon
   points="11.947,2.45 9.65,2.45 10.208,3.008 11.389,3.008 "
   id="polygon3995"
   style="fill:#b8af82" />
		<polygon
   points="11.947,4.749 11.389,4.19 11.389,3.008 11.947,2.45 "
   id="polygon3997"
   style="fill:#80795b" />
		<polygon
   points="9.65,4.749 10.208,4.19 11.389,4.19 11.947,4.749 "
   id="polygon3999"
   style="fill:#5e5b43" />
		<polygon
   points="9.65,4.749 9.65,2.45 10.208,3.008 10.208,4.19 "
   id="polygon4001"
   style="fill:#9a916c" />
	</g>
	<g
   id="g4003">
		<polygon
   points="15.961,7.199 20.033,7.199 21.597,5.637 21.597,1.564 20.033,0 15.961,0 15.961,0 14.398,1.564 14.398,5.637 "
   id="polygon4005"
   style="fill:#404040" />
	</g>
	<g
   id="g4007">
		<rect
   x="16.849001"
   y="2.45"
   width="2.2969999"
   height="2.299"
   id="rect4009"
   style="fill:#8d8c8c" />
		<rect
   x="17.407"
   y="3.0079999"
   width="1.182"
   height="1.183"
   id="rect4011"
   style="fill:#8c8663" />
		<polygon
   points="19.146,2.45 16.849,2.45 17.407,3.008 18.588,3.008 "
   id="polygon4013"
   style="fill:#b8af82" />
		<polygon
   points="19.146,4.749 18.588,4.19 18.588,3.008 19.146,2.45 "
   id="polygon4015"
   style="fill:#80795b" />
		<polygon
   points="16.849,4.749 17.407,4.19 18.588,4.19 19.146,4.749 "
   id="polygon4017"
   style="fill:#5e5b43" />
		<polygon
   points="16.849,4.749 16.849,2.45 17.407,3.008 17.407,4.19 "
   id="polygon4019"
   style="fill:#9a916c" />
	</g>
</g><rect
     height="2.7909999"
     width="2.7909999"
     y="-5.0085835"
     x="2.1632509"
     id="rect4021"
     style="fill:none" /><rect
     height="2.2620001"
     width="2.164"
     y="-4.7435832"
     x="2.4772508"
     id="rect4023"
     style="fill:none" /><rect
     height="2.7909999"
     width="2.7909999"
     y="-5.0085835"
     x="9.3622513"
     id="rect4025"
     style="fill:none" /><rect
     height="2.2620001"
     width="2.164"
     y="-4.7435832"
     x="9.6762514"
     id="rect4027"
     style="fill:none" /><rect
     height="2.7909999"
     width="2.7909999"
     y="-5.0085835"
     x="16.561251"
     id="rect4029"
     style="fill:none" /><rect
     height="2.2620001"
     width="2.164"
     y="-4.7435832"
     x="16.875252"
     id="rect4031"
     style="fill:none" /><g
     id="g4033"
     transform="translate(0,-7.192209)">
	<g
   id="g4035">
		<polygon
   id="polygon4037"
   points="5.635,0 1.563,0 1.563,0 0,1.564 0,5.637 1.563,7.199 5.635,7.199 7.199,5.637 7.199,1.564 "
   style="fill:#404040" />
	</g>
	<g
   id="g4039">
		<rect
   id="rect4041"
   height="2.299"
   width="2.2969999"
   y="2.45"
   x="2.451"
   style="fill:#8d8c8c" />
		<rect
   id="rect4043"
   height="1.183"
   width="1.182"
   y="3.0079999"
   x="3.0090001"
   style="fill:#8c8663" />
		<polygon
   id="polygon4045"
   points="4.748,2.45 2.451,2.45 3.009,3.008 4.19,3.008 "
   style="fill:#b8af82" />
		<polygon
   id="polygon4047"
   points="4.748,4.749 4.19,4.19 4.19,3.008 4.748,2.45 "
   style="fill:#80795b" />
		<polygon
   id="polygon4049"
   points="2.451,4.749 3.009,4.19 4.19,4.19 4.748,4.749 "
   style="fill:#5e5b43" />
		<polygon
   id="polygon4051"
   points="2.451,4.749 2.451,2.45 3.009,3.008 3.009,4.19 "
   style="fill:#9a916c" />
	</g>
	<g
   id="g4053">
		<polygon
   id="polygon4055"
   points="12.834,0 8.762,0 8.762,0 7.199,1.564 7.199,5.637 8.762,7.199 12.834,7.199 14.398,5.637 14.398,1.564 "
   style="fill:#404040" />
	</g>
	<g
   id="g4057">
		<rect
   id="rect4059"
   height="2.299"
   width="2.2969999"
   y="2.45"
   x="9.6499996"
   style="fill:#8d8c8c" />
		<rect
   id="rect4061"
   height="1.183"
   width="1.182"
   y="3.0079999"
   x="10.208"
   style="fill:#8c8663" />
		<polygon
   id="polygon4063"
   points="11.947,2.45 9.65,2.45 10.208,3.008 11.389,3.008 "
   style="fill:#b8af82" />
		<polygon
   id="polygon4065"
   points="11.947,4.749 11.389,4.19 11.389,3.008 11.947,2.45 "
   style="fill:#80795b" />
		<polygon
   id="polygon4067"
   points="9.65,4.749 10.208,4.19 11.389,4.19 11.947,4.749 "
   style="fill:#5e5b43" />
		<polygon
   id="polygon4069"
   points="9.65,4.749 9.65,2.45 10.208,3.008 10.208,4.19 "
   style="fill:#9a916c" />
	</g>
	<g
   id="g4071">
		<polygon
   id="polygon4073"
   points="20.033,0 15.961,0 15.961,0 14.398,1.564 14.398,5.637 15.961,7.199 20.033,7.199 21.597,5.637 21.597,1.564 "
   style="fill:#404040" />
	</g>
	<g
   id="g4075">
		<rect
   id="rect4077"
   height="2.299"
   width="2.2969999"
   y="2.45"
   x="16.849001"
   style="fill:#8d8c8c" />
		<rect
   id="rect4079"
   height="1.183"
   width="1.182"
   y="3.0079999"
   x="17.407"
   style="fill:#8c8663" />
		<polygon
   id="polygon4081"
   points="19.146,2.45 16.849,2.45 17.407,3.008 18.588,3.008 "
   style="fill:#b8af82" />
		<polygon
   id="polygon4083"
   points="19.146,4.749 18.588,4.19 18.588,3.008 19.146,2.45 "
   style="fill:#80795b" />
		<polygon
   id="polygon4085"
   points="16.849,4.749 17.407,4.19 18.588,4.19 19.146,4.749 "
   style="fill:#5e5b43" />
		<polygon
   id="polygon4087"
   points="16.849,4.749 16.849,2.45 17.407,3.008 17.407,4.19 "
   style="fill:#9a916c" />
	</g>
</g></g><use
   x="0"
   y="0"
   xlink:href="#g3951"
   id="use4089"
   width="21.597"
   height="7.1989999" /></svg>