<?xml version="1.0" encoding="UTF-8" standalone="no"?>
<svg
   xmlns:dc="http://purl.org/dc/elements/1.1/"
   xmlns:cc="http://creativecommons.org/ns#"
   xmlns:rdf="http://www.w3.org/1999/02/22-rdf-syntax-ns#"
   xmlns:svg="http://www.w3.org/2000/svg"
   xmlns="http://www.w3.org/2000/svg"
   xmlns:sodipodi="http://sodipodi.sourceforge.net/DTD/sodipodi-0.dtd"
   xmlns:inkscape="http://www.inkscape.org/namespaces/inkscape"
   version="1.1"
   id="svg"
   x="0px"
   y="0px"
   width="0.94in"
   height="0.59in"
   viewBox="0 0 67.502 42.52"
   xml:space="preserve"
   inkscape:version="0.48.1 r9760"
   sodipodi:docname="usb_connector.svg"><metadata
   id="metadata100"><rdf:RDF><cc:Work
       rdf:about=""><dc:format>image/svg+xml</dc:format><dc:type
         rdf:resource="http://purl.org/dc/dcmitype/StillImage" /></cc:Work></rdf:RDF></metadata><defs
   id="defs98">












	
	
	
	
	
	
	
	
	
	
	
	
	
	
	
	
	

		
	</defs><sodipodi:namedview
   pagecolor="#ffffff"
   bordercolor="#666666"
   borderopacity="1"
   objecttolerance="10"
   gridtolerance="10"
   guidetolerance="10"
   inkscape:pageopacity="0"
   inkscape:pageshadow="2"
   inkscape:window-width="1024"
   inkscape:window-height="696"
   id="namedview96"
   showgrid="false"
   inkscape:zoom="4.9529192"
   inkscape:cx="42.299999"
   inkscape:cy="26.549999"
   inkscape:window-x="0"
   inkscape:window-y="24"
   inkscape:window-maximized="1"
   inkscape:current-layer="svg" />
<rect
   style="fill:none"
   height="5.3720002"
   width="2.1600001"
   y="32.178001"
   x="60.644001"
   id="connector0pin" /><rect
   style="fill:none"
   height="5.309"
   width="2.1600001"
   y="4.8403273"
   x="64.651436"
   id="connector1pin" /><rect
   style="fill:none"
   height="5.309"
   width="2.1600001"
   y="5.0019999"
   x="60.644001"
   id="connector2pin" /><rect
   style="fill:none"
   height="5.3720002"
   width="2.1589999"
   y="32.016331"
   x="64.661438"
   id="connector3pin" /><rect
   style="fill:none"
   height="5.3720002"
   width="2.1589999"
   y="32.016331"
   x="64.661438"
   id="connector5pin" /><rect
   style="fill:none"
   height="5.3720002"
   width="2.1589999"
   y="32.016331"
   x="64.661438"
   id="connector4pin" /><rect
   style="fill:none"
   height="3.714"
   width="2.1600001"
   y="33.835999"
   x="60.644001"
   id="connector0terminal" /><rect
   style="fill:none"
   height="3.6689999"
   width="2.1600001"
   y="4.8403273"
   x="64.651436"
   id="connector1terminal" /><rect
   style="fill:none"
   height="3.6689999"
   width="2.1600001"
   y="5.0019999"
   x="60.644001"
   id="connector2terminal" /><rect
   style="fill:none"
   height="3.714"
   width="2.1589999"
   y="33.674328"
   x="64.661438"
   id="connector3terminal" /><rect
   style="fill:none"
   height="3.714"
   width="2.1589999"
   y="33.674328"
   x="64.661438"
   id="connector5terminal" /><rect
   style="fill:none"
   height="3.714"
   width="2.1589999"
   y="33.674328"
   x="64.661438"
   id="connector4terminal" /><g
   id="g40"
   transform="translate(11.155437,-0.16167305)">
		<rect
   style="fill:#898989"
   id="rect42"
   height="34.015999"
   width="45.355"
   y="4.2519999"
   x="0.001" />
	</g><g
   id="g44"
   transform="translate(11.155437,-0.16167305)">
		<rect
   style="fill:#dddddd"
   id="rect46"
   height="0.74299997"
   width="45.355"
   y="4.2519999"
   x="0.001" />
	</g><g
   id="g48"
   transform="translate(11.155437,-0.16167305)">
		<rect
   style="fill:#c6c6c6"
   id="rect50"
   height="0.889"
   width="45.355"
   y="4.9910002"
   x="0.001" />
	</g><rect
   y="5.7183275"
   width="45.355999"
   height="31.341999"
   id="rect54"
   x="11.155437"
   style="fill:#adadad" /><g
   id="g56"
   transform="translate(11.155437,-0.16167305)">
		<line
   style="fill:#919191;stroke:#4d4d4d;stroke-width:0.1"
   id="line58"
   y2="38.268002"
   x2="34.173"
   y1="4.2519999"
   x1="34.173" />
	</g><g
   id="g76"
   transform="translate(11.155437,-0.16167305)">
		<path
   style="fill:#4d4d4d"
   inkscape:connector-curvature="0"
   id="path78"
   d="m 30.074,21.386 -2.64,-1.524 v 1.134 H 13.468 c 0.515,-0.416 1.008,-0.965 1.493,-1.505 0.802,-0.894 1.631,-1.819 2.338,-1.819 h 2.277 c 0.141,0.521 0.597,0.913 1.163,0.913 0.677,0 1.226,-0.548 1.226,-1.225 0,-0.677 -0.549,-1.226 -1.226,-1.226 -0.566,0 -1.022,0.392 -1.163,0.914 h -2.277 c -0.985,0 -1.868,0.984 -2.803,2.026 -0.744,0.83 -1.509,1.675 -2.255,1.922 h -1.82 c -0.185,-1.02 -1.073,-1.794 -2.145,-1.794 -1.206,0 -2.184,0.978 -2.184,2.184 0,1.207 0.978,2.184 2.184,2.184 1.072,0 1.96,-0.774 2.145,-1.794 h 5.196 c 0.746,0.247 1.511,1.093 2.254,1.922 0.934,1.043 1.817,2.026 2.802,2.026 h 2.142 v 0.985 h 2.595 v -2.595 h -2.595 v 0.985 h -2.142 c -0.707,0 -1.536,-0.925 -2.337,-1.818 -0.485,-0.541 -0.978,-1.09 -1.493,-1.506 h 10.592 v 1.134 l 2.639,-1.523 z" />
	</g>
</svg>